<svg width="128" height="128" viewBox="0 0 128 128" fill="none" xmlns="http://www.w3.org/2000/svg">
<rect width="128" height="128" fill="white"/>
<path d="M13.7273 50.6364V40.4545H54.1818V50.6364H40.1818V87H27.7273V50.6364H13.7273ZM58.9375 40.4545H74.6648L85.483 66.8182H86.0284L96.8466 40.4545H112.574V87H100.21V60.0909H99.8466L89.483 86.6364H82.0284L71.6648 59.9091H71.3011V87H58.9375V40.4545Z" fill="black"/>
<path d="M119.208 90.8308C119.858 90.2159 119.725 89.0911 118.946 88.6172L109.065 82.605C108.515 82.2709 107.827 82.4609 107.527 83.0295C107.234 83.5862 107.42 84.3021 107.949 84.6456L117.666 90.9584C118.161 91.2799 118.788 91.2281 119.208 90.8308Z" fill="#3460CE"/>
<rect width="14.5843" height="2.63266" rx="1.31633" transform="matrix(-0.854297 0.519784 -0.466568 -0.884485 120.151 90.3598)" fill="#3460CE"/>
<path d="M87.3219 90.8308C86.6717 90.2159 86.8047 89.0911 87.5836 88.6172L97.465 82.605C98.0141 82.2709 98.7025 82.4609 99.0024 83.0295C99.296 83.5862 99.1091 84.3021 98.5803 84.6456L88.8633 90.9584C88.3683 91.2799 87.742 91.2281 87.3219 90.8308Z" fill="#3460CE"/>
<rect width="14.5843" height="2.63266" rx="1.31633" transform="matrix(0.854297 0.519784 0.466568 -0.884485 86.3782 90.3598)" fill="#3460CE"/>
<rect width="2.32169" height="24.2602" rx="1.16084" transform="matrix(0.960061 0.27979 -0.262734 0.964868 105.374 78)" fill="#3460CE"/>
<path d="M19.966 38.608V39H17.362V37.838C17.1007 38.2673 16.8067 38.594 16.48 38.818C16.1627 39.0327 15.7847 39.14 15.346 39.14C14.562 39.14 13.9367 38.832 13.47 38.216C13.0127 37.5907 12.784 36.718 12.784 35.598V35.318C12.784 34.2353 13.05 33.372 13.582 32.728C14.1233 32.084 14.8607 31.762 15.794 31.762C16.354 31.762 16.8487 31.902 17.278 32.182V29.816C17.278 29.4987 17.264 29.312 17.236 29.256C17.208 29.1907 17.1193 29.1487 16.97 29.13L16.2 29.032V28.64H18.888V37.824C18.888 38.1413 18.902 38.3327 18.93 38.398C18.958 38.454 19.0467 38.4913 19.196 38.51L19.966 38.608ZM14.506 36.018C14.506 36.886 14.6133 37.5207 14.828 37.922C15.0427 38.3233 15.3367 38.524 15.71 38.524C15.9433 38.524 16.186 38.4307 16.438 38.244C16.6993 38.048 16.9793 37.656 17.278 37.068V32.84C16.9233 32.4853 16.4893 32.308 15.976 32.308C15.4627 32.308 15.0893 32.5413 14.856 33.008C14.6227 33.4653 14.506 34.0953 14.506 34.898V36.018ZM26.8255 37.334C26.6575 37.9873 26.3448 38.454 25.8875 38.734C25.4301 39.0047 24.8981 39.14 24.2915 39.14C23.1715 39.14 22.3315 38.818 21.7715 38.174C21.2115 37.5207 20.9315 36.6573 20.9315 35.584V35.304C20.9315 34.2307 21.1928 33.372 21.7155 32.728C22.2475 32.084 23.0128 31.762 24.0115 31.762C24.5715 31.762 25.0661 31.874 25.4955 32.098C25.9341 32.3127 26.2748 32.6253 26.5175 33.036C26.7695 33.4467 26.8955 33.946 26.8955 34.534C26.8955 34.674 26.8861 34.8233 26.8675 34.982C26.8581 35.1407 26.8348 35.2993 26.7975 35.458H22.6535V35.864C22.6535 36.8533 22.7935 37.5673 23.0735 38.006C23.3535 38.4353 23.8061 38.65 24.4315 38.65C24.8328 38.65 25.1735 38.5333 25.4535 38.3C25.7335 38.0573 25.8921 37.6513 25.9295 37.082L26.8255 37.334ZM24.0115 32.252C23.5541 32.252 23.2135 32.462 22.9895 32.882C22.7655 33.302 22.6535 33.9973 22.6535 34.968H25.1875C25.2248 34.7813 25.2481 34.6087 25.2575 34.45C25.2761 34.282 25.2855 34.128 25.2855 33.988C25.2855 33.3907 25.1688 32.952 24.9355 32.672C24.7021 32.392 24.3941 32.252 24.0115 32.252ZM33.8082 33.078L31.8202 39H30.5462L28.5582 33.078C28.4928 32.8633 28.4368 32.714 28.3902 32.63C28.3528 32.5367 28.3062 32.476 28.2502 32.448C28.2035 32.42 28.1288 32.4013 28.0262 32.392L27.2562 32.294V31.902H31.0362V32.294L30.2662 32.392C30.1262 32.4107 30.0515 32.448 30.0422 32.504C30.0328 32.56 30.0795 32.7513 30.1822 33.078L31.7222 37.726L33.2762 33.078C33.3788 32.7513 33.4255 32.56 33.4162 32.504C33.4162 32.448 33.3415 32.4107 33.1922 32.392L32.4222 32.294V31.902H35.0962V32.294L34.3262 32.392C34.2328 32.4013 34.1582 32.42 34.1022 32.448C34.0555 32.476 34.0135 32.5367 33.9762 32.63C33.9388 32.714 33.8828 32.8633 33.8082 33.078Z" fill="#3460CE"/>
</svg>
